<?xml version="1.0" standalone="no"?>
<!DOCTYPE svg PUBLIC "-//W3C//DTD SVG 20010904//EN"
 "http://www.w3.org/TR/2001/REC-SVG-20010904/DTD/svg10.dtd">
<svg version="1.0" xmlns="http://www.w3.org/2000/svg"
 width="260.000000pt" height="260.000000pt" viewBox="0 0 260.000000 260.000000"
 preserveAspectRatio="xMidYMid meet">
<metadata>
Created by potrace 1.14, written by Peter Selinger 2001-2017
</metadata>
<g transform="translate(0.000000,260.000000) scale(0.100000,-0.100000)"
fill="#000000" stroke="none">
<path d="M332 2584 c-108 -29 -194 -91 -257 -184 -103 -153 -99 -341 10 -489
85 -115 186 -169 347 -185 58 -6 153 15 223 48 199 97 296 316 228 521 -73
222 -320 352 -551 289z"/>
<path d="M1948 2581 c-237 -76 -369 -314 -299 -540 84 -271 397 -395 652 -260
187 100 275 311 213 514 -34 111 -143 226 -261 274 -79 32 -223 38 -305 12z"/>
<path d="M326 1009 c-126 -36 -232 -127 -289 -247 -30 -62 -32 -75 -32 -172 0
-97 2 -110 32 -173 120 -253 439 -342 671 -187 213 142 260 412 108 618 -50
68 -143 134 -220 157 -81 25 -190 27 -270 4z"/>
<path d="M2016 1002 c-8 -8 -14 -9 -51 -11 -14 0 -25 -5 -25 -11 0 -5 6 -7 13
-5 19 8 41 -33 26 -51 -7 -8 -7 -14 -1 -14 14 0 33 26 25 34 -4 4 0 4 10 0 13
-5 16 -2 11 9 -3 9 -12 13 -19 11 -17 -7 -29 12 -14 22 8 4 9 3 5 -4 -4 -7 -2
-12 3 -12 6 0 11 6 11 13 0 9 2 9 8 0 4 -7 13 -9 20 -4 10 6 10 10 -1 19 -8 7
-17 8 -21 4z"/>
<path d="M2051 995 c1 -5 1 -19 0 -30 -1 -17 -3 -18 -12 -5 -9 13 -10 13 -8 0
3 -27 -1 -44 -8 -37 -3 4 -14 0 -24 -9 -22 -20 -46 -9 -28 12 10 12 9 18 -4
32 -10 9 -17 12 -18 7 -7 -61 -6 -73 7 -68 8 3 17 -2 20 -11 3 -9 11 -13 17
-9 6 3 7 1 3 -5 -8 -13 -30 -6 -68 20 -16 11 -28 15 -28 9 0 -6 9 -15 20 -21
13 -7 17 -16 13 -28 -6 -15 -5 -15 10 -3 13 10 20 11 31 2 18 -15 40 11 33 38
-3 13 -1 18 8 14 8 -2 19 5 25 17 11 20 13 20 34 7 22 -15 23 -14 23 12 0 17
-6 28 -14 28 -9 0 -12 -6 -8 -16 5 -13 4 -13 -6 -4 -9 9 -9 16 -1 26 7 8 9 17
5 21 -4 4 1 4 11 0 13 -5 17 -4 12 4 -8 13 -46 12 -45 -3z m-81 -55 c0 -5 -4
-10 -10 -10 -5 0 -10 5 -10 10 0 6 5 10 10 10 6 0 10 -4 10 -10z"/>
<path d="M2109 1003 c-1 -5 -2 -31 -3 -60 -2 -39 1 -50 11 -46 9 4 10 10 2 24
-6 13 -6 25 1 38 13 25 13 34 0 26 -6 -3 -7 1 -4 9 3 9 3 16 0 16 -3 0 -7 -3
-7 -7z"/>
<path d="M2134 997 c3 -10 1 -27 -4 -37 -11 -20 -4 -50 12 -50 5 0 7 4 3 9 -8
14 15 25 28 12 7 -7 14 -7 24 0 15 13 17 39 3 39 -5 0 -9 -5 -7 -11 1 -6 -12
-12 -29 -13 -34 -1 -37 18 -4 22 11 1 29 3 40 4 11 1 20 6 20 10 0 8 -5 9 -50
12 -14 0 -29 6 -33 11 -5 6 -6 2 -3 -8z"/>
<path d="M1883 960 c-18 -9 -30 -20 -26 -23 3 -4 14 -2 25 4 21 11 33 6 33
-14 0 -7 5 -13 10 -14 6 -2 10 11 10 29 0 38 -10 41 -52 18z"/>
<path d="M2225 969 c-4 -6 -5 -13 -2 -15 3 -3 -4 -15 -15 -26 -14 -14 -23 -17
-31 -9 -6 6 -15 11 -21 11 -5 0 -1 -7 10 -16 10 -8 14 -13 7 -9 -7 3 -25 -1
-41 -9 -27 -14 -52 -9 -55 10 -1 5 -5 8 -9 7 -5 -2 -8 2 -8 8 0 7 -10 -1 -21
-15 -20 -26 -20 -29 -5 -44 9 -10 16 -12 16 -5 0 7 -4 15 -10 18 -6 4 -5 11 3
19 15 17 29 -1 21 -26 -4 -13 -1 -16 10 -12 9 3 13 11 9 17 -3 6 -1 7 5 3 8
-5 9 -13 2 -25 -9 -18 -4 -31 11 -31 5 0 6 6 3 14 -7 19 15 31 29 16 9 -9 8
-14 -6 -24 -16 -12 -16 -14 -1 -20 8 -3 17 -6 18 -6 1 0 2 10 3 22 2 25 20 38
42 30 14 -5 14 -4 2 12 -12 15 -12 19 4 34 18 16 18 16 5 -1 -11 -15 -11 -20
3 -34 15 -15 16 -13 12 28 -3 30 -1 39 5 29 9 -14 14 -7 11 13 -1 5 3 6 9 2 5
-3 10 -2 10 4 0 5 -5 11 -12 13 -9 3 -9 6 0 12 7 4 12 2 12 -4 0 -6 4 -8 10
-5 6 4 7 -1 3 -12 -6 -16 -5 -17 12 -3 13 10 16 11 11 2 -6 -9 -3 -12 10 -10
11 2 18 -2 17 -9 -2 -7 2 -13 7 -13 12 0 13 11 2 25 -6 9 -76 45 -87 45 -2 0
-7 -5 -10 -11z m-64 -98 c-7 -5 -22 -6 -33 -3 -15 3 -16 7 -7 13 8 5 17 3 21
-4 8 -12 12 -2 8 18 -1 6 4 4 12 -3 11 -11 10 -14 -1 -21z"/>
<path d="M1830 925 c0 -16 16 -20 24 -6 3 5 -1 11 -9 15 -9 3 -15 0 -15 -9z"/>
<path d="M1870 920 c-27 -23 -32 -24 -48 -8 -10 10 -12 8 -9 -9 4 -25 17 -43
17 -23 0 9 3 10 13 1 8 -6 17 -8 20 -4 4 3 7 1 7 -5 0 -7 4 -12 10 -12 5 0 6
8 3 17 -6 15 -5 16 9 3 15 -14 15 -16 -3 -24 -10 -5 -19 -13 -19 -18 0 -10 13
-11 26 0 5 4 4 1 -2 -7 -15 -17 -37 -4 -30 16 4 9 1 13 -6 10 -7 -2 -12 -9
-11 -15 2 -6 -6 -14 -17 -17 -11 -4 -18 -11 -14 -16 3 -6 1 -16 -5 -23 -9 -11
-6 -13 14 -13 21 0 23 2 13 14 -9 11 -9 16 2 23 16 10 35 4 73 -22 15 -11 27
-15 27 -9 0 6 -9 15 -20 21 -11 6 -17 16 -14 25 4 8 11 12 18 8 16 -11 59 -11
72 -1 7 5 14 3 17 -7 4 -9 -2 -19 -13 -25 -11 -6 -20 -15 -20 -21 0 -6 12 -2
28 9 15 10 34 21 42 24 18 6 53 -10 45 -21 -2 -5 10 -8 28 -7 17 2 38 -2 46
-8 11 -9 13 -8 9 4 -2 8 -16 15 -30 15 -30 1 -81 32 -73 45 3 4 -3 7 -12 5
-10 -1 -24 2 -31 8 -9 7 -18 5 -30 -6 -14 -13 -21 -14 -30 -5 -8 8 -15 8 -25
-1 -11 -9 -17 -8 -27 4 -10 12 -10 15 0 15 7 0 1 9 -13 20 -14 11 -33 18 -44
15 -10 -3 -4 1 12 9 17 8 26 15 20 16 -5 0 -3 5 5 10 8 5 10 10 4 10 -6 0 -21
-9 -34 -20z m182 -84 c10 6 11 4 0 -7 -10 -11 -15 -10 -30 6 -15 17 -15 18 0
6 9 -7 23 -9 30 -5z"/>
<path d="M2234 905 c-8 -13 -13 -29 -9 -34 3 -6 1 -20 -6 -32 -10 -19 -9 -21
6 -16 9 4 21 7 26 7 6 0 7 5 4 10 -4 6 -12 7 -18 3 -7 -4 -6 1 2 10 8 10 21
15 31 12 13 -4 17 -1 16 12 -1 13 5 17 18 15 16 -3 18 -1 8 11 -6 7 -8 18 -4
23 4 4 0 3 -10 -4 -13 -10 -17 -10 -22 0 -4 9 -5 9 -5 -2 2 -29 -1 -43 -8 -37
-3 4 -12 2 -20 -4 -9 -9 -13 -8 -13 0 0 6 5 11 11 11 5 0 7 4 4 10 -3 6 1 7
10 4 11 -5 14 -2 9 10 -8 21 -11 20 -30 -9z"/>
<path d="M2327 898 c-15 -25 -20 -29 -28 -17 -5 7 -9 10 -9 4 0 -5 4 -16 9
-24 7 -10 12 -8 25 10 10 15 16 18 16 9 0 -13 2 -13 11 0 8 12 9 11 5 -6 -5
-15 -2 -21 9 -21 10 0 14 6 10 14 -3 8 -5 21 -5 30 0 9 -6 13 -14 10 -10 -4
-13 -1 -9 9 9 24 -1 15 -20 -18z"/>
<path d="M1756 870 c-21 -21 -35 -43 -32 -48 3 -5 -4 -12 -16 -15 -12 -4 -19
-9 -15 -13 3 -4 -2 -19 -13 -33 -18 -27 -16 -44 7 -48 6 -1 14 5 17 13 5 12 1
14 -17 9 -19 -5 -20 -5 -4 5 9 6 15 17 11 23 -3 7 4 1 15 -13 11 -14 21 -31
22 -37 1 -7 3 -17 4 -23 1 -5 3 -13 4 -17 1 -5 5 -1 11 7 5 9 5 19 -2 27 -7 9
-7 18 3 30 12 15 12 16 -3 10 -12 -4 -21 1 -29 15 -8 15 -8 18 0 14 6 -4 11
-3 11 3 0 5 -6 11 -12 14 -7 2 -5 3 5 1 9 -1 15 2 11 7 -3 5 1 9 8 9 10 0 9 3
-2 11 -12 8 -10 9 7 4 18 -5 22 -3 17 9 -3 9 -11 13 -17 9 -5 -3 -7 -1 -3 5 3
6 19 8 34 6 22 -4 25 -3 15 7 -7 7 -13 17 -13 22 0 5 9 -1 20 -14 10 -13 19
-19 20 -12 0 6 -5 15 -10 18 -6 4 -8 10 -5 15 3 5 2 11 -3 14 -4 2 -25 -13
-46 -34z"/>
<path d="M2380 881 c0 -5 7 -14 15 -21 10 -9 15 -9 15 -1 0 6 -5 11 -11 11 -5
0 -7 5 -4 10 3 6 1 10 -4 10 -6 0 -11 -4 -11 -9z"/>
<path d="M1826 854 c-4 -9 -9 -14 -13 -11 -3 4 -12 2 -20 -4 -10 -9 -13 -8
-13 1 0 8 -2 11 -5 8 -3 -3 -3 -12 1 -21 4 -12 10 -14 28 -6 23 11 52 49 37
49 -5 0 -12 -7 -15 -16z"/>
<path d="M2316 849 c-21 -30 -20 -35 4 -35 23 0 25 6 8 26 -11 12 -10 12 5 1
18 -14 22 -5 8 18 -7 10 -12 8 -25 -10z"/>
<path d="M2259 852 c7 -5 10 -15 7 -21 -4 -6 -2 -19 3 -28 8 -14 10 -15 11 -3
0 12 2 12 8 2 6 -8 9 -2 9 18 0 16 -4 30 -8 30 -4 0 -16 3 -26 6 -14 4 -15 4
-4 -4z"/>
<path d="M2416 852 c-4 -6 -13 -9 -21 -5 -8 3 -15 0 -15 -6 0 -10 16 -15 47
-14 6 0 9 -6 6 -13 -3 -8 -9 -12 -13 -9 -4 3 -13 -1 -19 -8 -8 -11 -5 -14 19
-14 16 0 27 4 24 9 -3 4 2 5 10 2 9 -3 14 -9 12 -13 -3 -4 -1 -13 3 -20 6 -9
11 -10 15 -2 4 6 2 11 -4 11 -6 0 -9 4 -5 9 3 5 -3 16 -13 23 -11 7 -19 15
-19 18 1 3 -4 13 -10 24 -6 12 -13 15 -17 8z"/>
<path d="M2110 840 c0 -5 5 -10 10 -10 6 0 10 5 10 10 0 6 -4 10 -10 10 -5 0
-10 -4 -10 -10z"/>
<path d="M2169 840 c-1 -3 -1 -8 0 -12 0 -5 -4 -8 -10 -8 -7 0 0 -9 14 -20 14
-11 32 -17 40 -14 22 8 30 -12 11 -30 -8 -9 -11 -16 -5 -16 5 0 13 5 16 10 4
6 11 7 17 4 6 -4 8 2 3 17 -5 19 -4 21 4 9 6 -8 11 -10 11 -4 0 5 -6 19 -14
29 -12 16 -16 17 -30 6 -11 -9 -16 -10 -16 -2 0 6 -4 11 -10 11 -5 0 -6 -8 -3
-17 6 -15 5 -16 -9 -3 -15 14 -15 16 3 24 10 5 19 12 19 15 0 8 -40 9 -41 1z"/>
<path d="M2352 825 c-15 -32 -15 -45 -1 -25 8 12 10 12 7 1 -3 -9 -17 -15 -39
-14 -24 0 -37 -6 -46 -21 -16 -28 -16 -37 1 -30 8 3 14 11 12 17 -1 7 -1 9 1
5 3 -5 9 -8 14 -8 6 0 8 4 4 9 -9 15 14 24 29 12 10 -8 16 -8 23 1 16 20 23
52 15 66 -6 9 -12 5 -20 -13z"/>
<path d="M1936 797 c23 -18 25 -18 48 0 l24 19 -48 0 -48 0 24 -19z m34 3 c0
-5 -2 -10 -4 -10 -3 0 -8 5 -11 10 -3 6 -1 10 4 10 6 0 11 -4 11 -10z"/>
<path d="M2385 809 c-11 -17 1 -21 15 -4 8 9 8 15 2 15 -6 0 -14 -5 -17 -11z"/>
<path d="M1742 785 c-15 -32 -15 -46 -1 -22 6 9 15 14 21 11 8 -5 9 -1 5 10
-4 10 -3 15 3 11 6 -3 10 -1 10 4 0 21 -27 11 -38 -14z"/>
<path d="M1782 784 c-8 -15 -17 -22 -25 -18 -9 5 -9 4 0 -6 9 -10 10 -17 2
-27 -9 -9 -8 -17 1 -28 7 -8 9 -15 4 -15 -4 0 -3 -5 3 -11 6 -6 9 -19 5 -28
-5 -14 -4 -14 11 -2 14 11 20 11 32 1 13 -11 15 -9 12 11 -2 14 -12 25 -23 27
-16 3 -17 1 -4 -7 19 -13 0 -14 -20 -1 -13 9 -13 10 0 10 13 0 13 1 0 11 -12
8 -11 9 5 5 16 -5 21 -1 21 14 0 11 -4 20 -8 20 -4 0 -8 -4 -8 -8 0 -5 -7 -9
-16 -9 -14 0 -15 2 -2 11 8 6 13 18 10 26 -4 11 0 10 13 -3 10 -10 23 -16 31
-13 19 7 39 -21 25 -37 -6 -8 -8 -17 -4 -20 11 -11 20 -8 20 7 0 8 7 30 17 50
18 38 14 61 -10 52 -8 -3 -14 -1 -14 5 0 6 -5 7 -10 4 -17 -11 0 -26 23 -20
12 2 16 2 9 -1 -6 -3 -10 -10 -6 -15 11 -19 -7 -29 -29 -17 -12 7 -27 11 -34
10 -15 -3 -26 15 -13 23 12 7 13 25 2 25 -5 0 -14 -12 -20 -26z"/>
<path d="M2060 801 c0 -5 -8 -8 -17 -7 -11 0 -18 -6 -17 -15 1 -9 -5 -16 -12
-16 -7 0 -10 5 -7 10 3 6 1 7 -6 3 -19 -12 -8 -29 21 -32 19 -2 25 2 24 14 0
9 -5 21 -11 25 -6 5 -1 6 10 3 26 -7 54 8 31 17 -9 4 -16 3 -16 -2z"/>
<path d="M1906 773 c-11 -11 -7 -20 9 -20 8 0 15 4 15 8 0 11 -16 20 -24 12z"/>
<path d="M2063 773 c-7 -2 -13 -9 -13 -15 0 -6 6 -5 15 2 13 11 14 10 9 -4 -3
-9 -2 -16 3 -16 5 0 9 9 10 20 2 20 -2 22 -24 13z"/>
<path d="M2099 764 c-7 -9 -8 -14 -1 -14 6 0 12 3 15 8 2 4 2 2 1 -5 -2 -6 4
-14 13 -17 10 -4 14 -2 10 8 -4 10 0 14 14 11 12 -2 19 1 17 7 -6 17 -55 18
-69 2z"/>
<path d="M2200 773 c-8 -3 -19 -12 -23 -20 -5 -7 -13 -10 -19 -7 -7 4 -8 2 -4
-4 7 -12 -8 -17 -29 -12 -5 2 -36 4 -69 4 -43 1 -61 6 -71 20 -8 10 -22 16
-32 13 -17 -4 -17 -4 2 -12 11 -5 23 -13 27 -19 4 -6 18 -11 30 -12 13 -1 32
-5 42 -9 14 -6 17 -5 11 4 -6 10 -3 11 14 2 13 -7 21 -8 21 -2 0 6 8 7 17 4
15 -6 14 -7 -3 -13 -10 -4 -26 -5 -34 -2 -13 5 -13 3 0 -14 11 -15 11 -16 0
-6 -8 6 -19 12 -24 12 -13 -1 32 -40 45 -40 5 0 6 6 3 14 -8 20 14 30 32 15
13 -11 15 -10 12 2 -3 13 34 59 48 59 3 0 12 7 20 15 16 15 11 18 -16 8z"/>
<path d="M2361 762 c-8 -14 -12 -15 -22 -4 -7 6 -17 12 -23 12 -5 0 -1 -7 10
-16 10 -8 14 -13 7 -9 -7 3 -25 0 -40 -8 -31 -16 -57 -12 -46 6 4 7 0 6 -10
-1 -9 -8 -21 -11 -27 -7 -5 3 -21 -2 -34 -13 -22 -16 -22 -19 -8 -29 14 -9 14
-14 5 -24 -10 -10 -16 -9 -31 4 -21 20 -32 22 -32 6 0 -5 5 -7 10 -4 9 6 14
-8 11 -28 -1 -5 9 -5 21 -2 38 12 43 11 41 -8 -1 -13 4 -17 14 -13 9 4 22 1
29 -5 8 -7 14 -7 14 -1 0 12 -25 34 -31 27 -3 -2 -11 5 -18 17 -7 11 -8 17 -2
13 6 -3 11 -2 11 3 0 5 -9 13 -19 18 -18 8 -18 10 -3 24 14 13 15 12 9 -3 -3
-9 -2 -17 3 -17 6 0 10 4 10 9 0 4 10 8 23 7 17 -1 21 -6 19 -26 -4 -24 -3
-25 12 -5 15 18 17 19 29 4 10 -14 14 -14 25 -3 7 7 20 10 30 7 15 -6 15 -5 3
11 -12 15 -12 19 4 34 18 16 18 16 5 -1 -11 -15 -11 -20 3 -34 15 -15 16 -13
12 28 -2 25 -1 38 4 31 10 -17 21 -17 33 0 7 10 11 10 15 1 2 -7 9 -13 15 -13
6 0 16 -7 23 -17 7 -9 17 -13 23 -9 17 10 15 29 -3 22 -8 -3 -18 2 -23 10 -13
23 -89 27 -101 6z m-40 -51 c-7 -5 -22 -6 -33 -3 -15 3 -16 7 -7 13 8 5 17 3
21 -4 8 -12 12 -2 8 18 -1 6 4 4 12 -3 11 -11 10 -14 -1 -21z"/>
<path d="M1855 760 c3 -5 8 -10 11 -10 2 0 4 5 4 10 0 6 -5 10 -11 10 -5 0 -7
-4 -4 -10z"/>
<path d="M1894 736 c-9 -7 -14 -18 -10 -24 4 -7 2 -12 -4 -12 -6 0 -9 -4 -5
-9 9 -16 -15 -24 -31 -11 -11 10 -12 16 -3 27 15 17 -1 36 -20 24 -11 -7 -11
-13 0 -32 24 -44 20 -80 -7 -58 -11 9 -18 9 -26 1 -7 -7 -17 -8 -29 -2 -12 7
-19 6 -22 -3 -4 -10 10 -13 53 -13 32 0 56 4 53 8 -2 5 1 7 9 6 18 -4 39 -34
41 -58 1 -21 12 -26 22 -11 3 5 0 13 -6 16 -5 4 -8 13 -5 20 2 7 -2 16 -11 19
-9 4 -13 13 -9 22 5 12 1 14 -17 10 -18 -5 -17 -3 4 7 21 10 26 18 23 42 -2
16 0 25 4 20 4 -6 17 -10 29 -9 13 1 26 -8 34 -22 14 -27 26 -31 26 -9 0 8 -6
16 -14 19 -7 3 -13 10 -13 16 0 11 11 4 52 -34 21 -19 21 -19 16 2 -4 16 -2
19 11 15 13 -4 13 -2 -2 7 -9 6 -22 8 -28 5 -6 -4 -19 1 -29 10 -25 22 -64 27
-86 11z"/>
<path d="M2386 734 c-3 -8 -3 -20 0 -27 2 -7 -2 -21 -11 -32 -14 -18 -16 -19
-28 -4 -10 14 -14 14 -25 3 -7 -7 -20 -10 -30 -7 -15 6 -15 5 -3 -10 10 -13
11 -20 2 -31 -9 -11 -6 -13 14 -13 21 0 23 2 13 14 -9 11 -9 16 2 23 16 10 35
4 73 -22 15 -11 27 -15 27 -10 0 5 -9 16 -20 23 -19 13 -19 16 -6 42 8 15 11
27 5 27 -5 0 -9 5 -9 11 0 8 4 9 13 0 8 -6 17 -8 20 -4 4 3 7 1 7 -5 0 -7 4
-12 10 -12 5 0 6 8 3 18 -6 16 -6 16 11 -1 10 -10 24 -16 30 -14 10 4 11 -14
7 -67 -1 -5 -8 -3 -17 4 -12 11 -18 10 -32 -4 -16 -17 -16 -18 3 -12 11 3 27
1 35 -4 11 -7 18 -3 28 13 11 19 12 20 8 2 -3 -11 -1 -27 4 -35 7 -11 9 -8 8
15 -1 17 -4 35 -7 40 -6 10 -7 17 -9 49 -2 12 -7 16 -18 12 -10 -4 -25 1 -35
10 -24 22 -66 26 -73 8z"/>
<path d="M1706 713 c-8 -19 8 -40 18 -24 4 6 3 11 -3 11 -6 0 -8 7 -5 15 4 8
4 15 1 15 -3 0 -8 -8 -11 -17z"/>
<path d="M1651 692 c-1 -9 -2 -27 -2 -39 -1 -13 -4 -21 -8 -19 -4 3 -7 -9 -6
-25 0 -34 10 -37 26 -7 10 18 9 20 -7 14 -18 -6 -18 -5 -2 7 13 10 14 17 6 25
-8 8 -8 15 2 27 16 19 34 20 27 1 -3 -7 -1 -18 5 -24 8 -8 7 -16 -2 -27 -12
-15 -11 -16 6 -13 13 2 19 -2 17 -15 -1 -12 4 -17 14 -13 8 3 23 1 34 -4 24
-14 26 5 2 19 -10 6 -13 11 -7 11 5 0 15 -5 22 -12 9 -9 12 -9 12 0 0 7 5 12
11 12 8 0 8 -5 -1 -15 -7 -8 -9 -15 -4 -15 5 0 -1 -7 -13 -15 -12 -8 -28 -13
-35 -10 -9 4 -14 -2 -15 -16 -2 -16 1 -18 12 -9 8 6 18 9 24 6 5 -3 12 1 15
10 4 10 12 14 22 10 12 -5 15 -2 10 10 -10 27 4 35 35 18 17 -8 33 -13 37 -10
3 3 1 6 -5 6 -6 0 -10 8 -9 17 1 15 -9 17 -62 18 -35 1 -66 -3 -69 -8 -10 -17
-22 17 -12 35 11 21 3 42 -13 32 -7 -4 -7 -9 0 -13 7 -4 8 -12 2 -21 -8 -13
-10 -12 -11 3 -3 40 -17 63 -38 64 -10 1 -19 -6 -20 -15z"/>
<path d="M1910 700 c0 -5 1 -11 2 -12 1 -2 -4 -14 -11 -27 -11 -20 -11 -25 3
-33 9 -5 14 -14 10 -19 -3 -6 2 -19 12 -31 18 -19 18 -20 -1 -34 -10 -8 -27
-12 -36 -9 -12 4 -16 0 -15 -12 1 -13 -5 -17 -18 -15 -17 3 -18 1 -7 -12 7 -9
9 -21 5 -28 -13 -20 -14 -40 -2 -36 6 2 13 14 15 27 3 22 33 74 33 58 0 -4 11
0 24 8 23 15 25 15 36 -4 6 -12 15 -21 21 -21 6 0 2 12 -9 28 -26 37 -32 56
-22 72 7 11 12 11 23 2 12 -10 15 -8 15 13 0 20 -3 23 -14 14 -11 -9 -18 -8
-31 2 -14 12 -16 12 -11 -2 3 -9 2 -22 -4 -30 -8 -11 -9 -11 -5 2 3 9 0 22 -6
28 -8 8 -8 11 2 11 7 0 9 5 4 13 -12 19 -12 36 -1 44 7 3 8 1 4 -5 -4 -6 5
-18 21 -27 27 -15 27 -15 3 -9 -24 6 -24 5 -8 -12 17 -17 18 -17 37 0 11 10
25 15 32 10 9 -5 10 -2 6 10 -4 10 -7 20 -7 22 0 2 -5 4 -11 4 -5 0 -8 -4 -4
-9 3 -5 1 -12 -4 -15 -13 -8 -42 4 -36 15 3 4 -3 13 -14 18 -25 14 -31 14 -31
1z"/>
<path d="M2225 702 c-17 -12 -14 -41 5 -47 20 -6 33 -32 24 -46 -4 -6 -10 -6
-18 0 -7 6 -22 7 -35 4 -21 -5 -23 -3 -16 18 3 13 3 20 -2 14 -7 -9 -23 -11
-63 -6 -13 1 -13 2 0 11 11 7 7 8 -15 6 -20 -2 -35 3 -47 18 -16 20 -24 13
-19 -16 1 -8 -12 -11 -39 -9 -10 0 -11 -1 -2 -5 6 -3 9 -11 5 -17 -12 -19 -11
-51 1 -59 18 -12 22 -9 24 19 2 26 2 26 -13 7 -14 -16 -14 -14 0 14 11 23 21
32 31 28 12 -5 14 -1 10 17 -4 14 -1 11 9 -8 12 -26 20 -27 16 -2 -1 5 3 6 9
2 6 -3 8 -10 5 -15 -3 -5 14 -7 37 -5 29 3 38 1 28 -5 -8 -5 -22 -7 -30 -5
-20 6 -21 -32 -2 -40 9 -3 12 0 9 9 -4 10 0 14 14 11 10 -2 19 1 19 8 0 8 3 8
12 -1 14 -14 42 -16 33 -2 -9 15 4 12 21 -5 21 -20 35 -19 27 3 -6 16 -6 16
11 -1 19 -18 38 -19 37 -2 -1 5 -7 10 -14 11 -27 2 -29 5 -17 19 9 11 10 19 1
28 -8 10 -7 17 1 25 8 8 9 12 1 12 -14 0 -24 -26 -17 -47 3 -10 -4 -2 -14 17
-15 25 -17 37 -9 42 7 4 8 8 2 8 -5 0 -14 -4 -20 -8z"/>
<path d="M2404 689 c-3 -5 -2 -13 1 -19 3 -5 1 -10 -6 -10 -7 0 -4 -6 6 -14
16 -12 21 -11 33 1 8 8 23 11 36 8 11 -4 17 -3 11 2 -5 4 -10 15 -10 23 0 16
-61 24 -71 9z m36 -29 c-8 -5 -19 -10 -25 -10 -5 0 -3 5 5 10 8 5 20 10 25 10
6 0 3 -5 -5 -10z"/>
<path d="M2155 680 c-3 -5 -1 -10 4 -10 6 0 11 5 11 10 0 6 -2 10 -4 10 -3 0
-8 -4 -11 -10z"/>
<path d="M2355 680 c-3 -5 -1 -10 4 -10 6 0 11 5 11 10 0 6 -2 10 -4 10 -3 0
-8 -4 -11 -10z"/>
<path d="M1665 670 c-4 -6 -2 -17 4 -24 6 -7 9 -16 6 -20 -3 -3 0 -2 7 3 8 8
8 14 0 24 -7 8 -9 17 -5 20 3 4 4 7 0 7 -3 0 -9 -5 -12 -10z"/>
<path d="M1750 659 c0 -5 5 -7 10 -4 6 3 10 8 10 11 0 2 -4 4 -10 4 -5 0 -10
-5 -10 -11z"/>
<path d="M2327 643 c-10 -15 7 -25 30 -17 11 4 14 3 6 -3 -7 -5 -9 -14 -4 -22
6 -10 10 -9 15 4 8 21 -2 38 -19 31 -8 -3 -15 0 -18 7 -2 8 -5 8 -10 0z"/>
<path d="M2030 625 c0 -3 5 -15 10 -26 8 -14 7 -19 -1 -19 -7 0 -10 -3 -7 -6
4 -3 17 0 30 7 12 7 29 12 36 11 6 -2 12 2 12 8 0 6 -4 8 -10 5 -5 -3 -10 -2
-10 3 0 5 -6 9 -12 9 -7 0 -21 4 -30 8 -10 4 -18 4 -18 0z"/>
<path d="M2381 601 c-14 -25 -14 -41 0 -21 8 11 9 9 4 -10 -5 -18 -4 -22 4
-14 15 14 22 52 11 59 -5 3 -14 -3 -19 -14z"/>
<path d="M2437 611 c-10 -4 -17 -9 -15 -12 2 -3 -5 -17 -14 -31 -13 -19 -15
-29 -6 -34 6 -4 8 -3 5 3 -4 6 7 9 30 7 33 -2 34 -1 20 13 -14 14 -19 14 -34
3 -17 -13 -17 -13 -1 5 14 15 20 16 32 6 12 -10 15 -9 13 8 -1 16 -6 20 -22
16 -18 -6 -19 -5 -2 5 14 9 22 9 33 0 8 -8 14 -8 14 -2 0 8 -26 24 -33 21 -1
0 -10 -4 -20 -8z"/>
<path d="M1670 596 c0 -9 5 -16 10 -16 6 0 10 4 10 9 0 6 -4 13 -10 16 -5 3
-10 -1 -10 -9z"/>
<path d="M2333 603 c11 -10 -30 -34 -47 -27 -9 3 -16 1 -16 -5 0 -7 -9 -5 -25
5 -17 11 -25 12 -25 5 0 -7 -5 -9 -12 -5 -16 10 -59 14 -53 4 9 -15 -21 -18
-45 -5 -20 11 -28 10 -54 -6 -40 -24 -42 -24 -71 6 -14 16 -26 22 -30 15 -3
-5 -2 -10 3 -10 6 0 9 -8 8 -17 -1 -14 9 -17 51 -18 29 -1 50 2 47 6 -2 4 0
10 5 13 5 4 13 1 17 -5 4 -8 9 -8 13 -1 4 7 12 8 21 2 13 -8 12 -10 -2 -11
-10 -1 -23 -2 -29 -3 -7 0 -15 -10 -20 -21 -11 -29 -11 -32 6 -32 10 0 14 7
10 21 -3 12 -2 15 1 8 5 -10 9 -9 20 5 13 17 15 17 30 -2 16 -20 16 -20 11 2
-4 16 2 27 22 39 24 16 25 16 12 1 -15 -19 -1 -23 17 -5 9 9 12 9 12 0 0 -7 5
-12 11 -12 5 0 8 4 5 8 -3 5 1 9 9 9 10 0 12 -4 5 -12 -7 -8 -2 -12 19 -12 16
0 28 5 27 11 -2 6 -1 8 1 4 2 -3 16 0 30 7 33 17 46 10 37 -18 -3 -12 -3 -19
1 -15 4 4 19 -2 33 -12 28 -22 43 -26 40 -9 -2 6 4 14 12 16 12 4 12 3 2 -5
-11 -7 -10 -10 3 -16 23 -8 25 -8 23 6 -2 7 3 12 11 13 8 0 16 6 19 13 3 11 0
12 -17 3 -12 -7 -26 -9 -31 -6 -5 3 -18 1 -29 -5 -23 -12 -41 2 -61 49 -7 17
-17 31 -23 31 -6 0 -7 -3 -4 -7z"/>
<path d="M2497 596 c-4 -10 -12 -14 -19 -10 -10 6 -10 4 0 -8 10 -13 10 -17 0
-20 -7 -3 4 -5 25 -6 37 -1 48 10 23 25 -7 4 -15 15 -18 22 -3 12 -6 11 -11
-3z m28 -34 c-3 -3 -11 0 -18 7 -9 10 -8 11 6 5 10 -3 15 -9 12 -12z"/>
<path d="M1824 577 c3 -10 6 -23 6 -28 0 -6 5 -7 10 -4 6 4 7 11 4 17 -4 7 -2
8 5 4 6 -4 9 -11 6 -16 -2 -4 10 -6 28 -5 47 4 47 4 47 16 0 8 -4 8 -14 0 -11
-10 -21 -9 -45 4 -17 8 -31 12 -31 8 0 -5 -5 -1 -11 7 -9 12 -10 12 -5 -3z"/>
<path d="M1641 571 c-6 -4 -8 -18 -5 -31 4 -14 6 -37 6 -53 0 -23 3 -25 15
-16 11 10 11 14 1 20 -10 7 -10 9 1 9 11 0 11 3 0 18 -13 15 -12 16 4 3 9 -7
17 -10 17 -5 0 5 4 2 9 -5 7 -11 3 -21 -15 -38 -25 -23 -31 -43 -14 -43 6 0
10 -6 10 -14 0 -7 6 -26 14 -40 11 -22 15 -24 20 -11 7 18 33 14 29 -4 -2 -6
0 -11 3 -11 6 0 37 30 32 31 -2 0 -14 2 -26 5 -33 6 -66 30 -53 39 6 3 11 11
11 17 0 7 -5 6 -14 -1 -9 -8 -16 -8 -20 -2 -6 9 34 42 66 54 10 3 20 1 24 -5
4 -6 3 -8 -3 -5 -6 4 -13 0 -16 -7 -4 -10 1 -14 14 -13 22 1 25 26 7 46 -10
11 -10 13 0 7 6 -4 12 -2 12 3 0 16 -11 14 -32 -6 -15 -13 -21 -14 -31 -4 -9
10 -8 16 8 28 l20 16 -20 -8 c-34 -13 -72 -12 -72 1 0 7 7 10 15 6 9 -3 13 -1
9 4 -3 5 3 10 13 10 10 0 16 -5 13 -10 -4 -6 1 -6 13 -1 10 4 29 8 42 8 13 -1
21 2 18 5 -9 8 -112 10 -125 3z"/>
<path d="M2340 560 c0 -5 -7 -7 -15 -4 -8 4 -17 -1 -21 -10 -4 -12 -16 -14
-47 -10 -87 10 -112 12 -99 7 6 -3 9 -10 5 -16 -3 -7 -3 -9 2 -5 4 4 14 3 22
-3 9 -9 17 -8 27 0 10 8 16 9 21 1 3 -5 11 -10 16 -10 6 0 7 5 4 10 -3 6 -1
10 4 10 6 0 11 -4 11 -10 0 -15 22 -7 43 15 18 20 18 20 3 -5 -22 -35 -19 -50
4 -21 11 13 20 19 20 14 0 -5 12 -14 28 -21 21 -9 22 -10 3 -6 -17 5 -21 3
-16 -6 5 -8 1 -18 -9 -26 -10 -7 -13 -15 -7 -18 5 -4 17 4 25 16 9 12 16 19
16 14 0 -5 8 -2 18 5 15 12 16 12 5 -2 -11 -13 -9 -16 16 -16 22 0 28 4 24 16
-3 11 -2 12 4 4 6 -8 12 -8 25 1 15 11 14 13 -12 13 -17 0 -30 -4 -30 -9 0 -9
-50 20 -61 35 -3 5 -10 8 -15 8 -5 -1 -8 8 -7 19 2 11 1 20 -2 20 -3 0 -5 -4
-5 -10z"/>
<path d="M1782 525 c-7 -14 -8 -25 -2 -25 5 0 7 -6 4 -13 -3 -8 2 -20 11 -27
18 -15 21 0 3 18 -9 9 -9 12 0 12 7 0 12 5 12 11 0 5 -4 8 -9 5 -11 -7 -8 20
3 31 4 4 7 4 6 -2 -4 -20 1 -30 9 -17 5 9 8 -4 7 -32 -2 -52 -18 -75 -38 -58
-9 7 -19 7 -28 2 -8 -6 -13 -10 -10 -11 42 -7 54 -11 69 -22 9 -6 16 -19 16
-27 0 -8 8 -20 20 -27 31 -19 37 -15 14 8 -13 13 -18 27 -14 39 5 15 2 18 -8
14 -8 -3 -18 -1 -22 5 -4 7 1 9 12 5 12 -4 14 -3 6 3 -13 9 -12 30 1 51 4 7 3
19 -4 27 -7 9 -8 15 0 20 14 9 13 22 -2 22 -7 0 -20 4 -29 7 -11 5 -19 -1 -27
-19z"/>
<path d="M1984 529 c-5 -9 -1 -11 26 -13 9 -1 14 -10 13 -23 -2 -14 3 -20 15
-19 18 1 19 -4 8 -39 -5 -17 -1 -21 21 -23 25 -2 26 -1 8 11 -18 14 -13 43 6
32 5 -4 9 -1 9 4 0 6 -5 11 -11 11 -5 0 -7 5 -4 10 4 6 3 10 -2 9 -27 -5 -35
1 -23 16 7 9 10 19 6 23 -11 10 -65 11 -72 1z"/>
<path d="M2502 527 c-12 -14 -11 -34 3 -57 8 -13 6 -13 -8 -2 -9 8 -21 11 -27
7 -16 -10 -12 -23 8 -21 11 1 16 -5 14 -16 -2 -10 2 -18 8 -18 9 0 15 28 11
59 -2 8 2 10 11 5 7 -4 5 2 -5 13 -14 16 -15 23 -6 29 8 4 10 3 5 -4 -4 -7 -2
-12 3 -12 6 0 11 7 11 15 0 18 -14 19 -28 2z"/>
<path d="M1710 520 c0 -5 5 -10 11 -10 5 0 7 5 4 10 -3 6 -8 10 -11 10 -2 0
-4 -4 -4 -10z"/>
<path d="M1940 521 c0 -6 -3 -10 -7 -9 -17 5 -54 -24 -49 -38 3 -8 1 -14 -5
-14 -6 0 -8 -4 -4 -9 3 -5 1 -12 -4 -15 -5 -4 -8 -22 -7 -41 4 -41 14 -57 14
-23 1 33 7 62 15 75 4 6 6 17 4 25 -2 7 -2 10 0 5 3 -4 9 -5 14 -2 5 4 6 0 3
-8 -3 -8 2 -14 11 -14 9 0 13 6 10 16 -7 25 7 42 22 25 8 -8 9 -15 3 -19 -6
-3 -10 -11 -10 -18 0 -7 7 -5 16 5 15 15 15 18 -5 44 -11 14 -21 22 -21 15z"/>
<path d="M2103 508 c-4 -13 -8 -32 -8 -43 0 -11 -6 -19 -12 -17 -19 3 -16 -15
3 -22 22 -9 26 -8 19 5 -4 5 1 19 10 29 13 15 15 23 7 33 -9 10 -8 17 0 25 9
9 9 12 1 12 -7 0 -15 -10 -20 -22z"/>
<path d="M2161 510 c-8 -4 -21 -5 -30 -2 -14 5 -14 4 -2 -11 12 -15 11 -20 -5
-38 -16 -17 -16 -22 -4 -29 24 -15 37 -11 16 5 -20 15 -12 20 23 15 13 -1 13
1 1 15 -12 14 -12 18 0 25 8 5 17 8 20 6 34 -14 58 -30 55 -36 -3 -4 1 -13 9
-19 11 -9 13 -6 12 17 -2 36 -28 66 -44 50 -8 -8 -15 -8 -24 0 -8 6 -19 7 -27
2z m84 -28 c-3 -3 -11 0 -18 7 -9 10 -8 11 6 5 10 -3 15 -9 12 -12z"/>
<path d="M2010 501 c0 -7 -4 -9 -10 -6 -5 3 -10 -3 -10 -14 0 -12 4 -21 9 -21
10 0 23 41 16 49 -3 2 -5 -1 -5 -8z"/>
<path d="M2264 460 c0 -35 3 -46 13 -43 9 4 10 10 3 23 -12 23 -2 59 11 38 5
-7 9 -8 9 -3 0 14 -13 30 -25 32 -7 1 -11 -18 -11 -47z"/>
<path d="M2319 494 c-13 -16 -12 -17 6 -10 15 5 17 4 9 -4 -6 -6 -21 -12 -33
-13 -11 -1 -21 -2 -21 -3 0 -12 14 -34 22 -34 5 0 6 4 3 10 -3 5 5 15 19 22
28 12 30 16 17 36 -6 10 -11 9 -22 -4z"/>
<path d="M2167 483 c-10 -15 7 -25 30 -17 11 4 14 3 6 -3 -8 -6 -9 -14 -3 -23
9 -13 10 -13 10 0 0 13 1 13 10 0 5 -8 7 -22 4 -31 -3 -12 1 -16 13 -15 13 1
17 -5 15 -18 -3 -17 -2 -18 12 -7 12 10 20 10 29 3 7 -6 18 -7 26 -2 8 4 21 5
30 2 14 -5 14 -4 2 12 -12 15 -12 19 4 34 18 16 18 16 5 -1 -11 -15 -11 -20 3
-34 15 -15 16 -13 12 28 -2 25 -1 38 4 31 10 -17 21 -17 33 0 7 10 11 10 15 1
6 -15 33 -17 33 -3 0 6 -6 10 -12 11 -72 6 -79 6 -88 -10 -7 -13 -11 -14 -21
-3 -7 6 -17 12 -23 12 -5 0 -1 -7 10 -16 10 -8 14 -13 7 -9 -7 3 -25 -1 -41
-9 -23 -12 -61 -8 -51 5 7 10 -35 59 -47 55 -7 -3 -14 0 -17 7 -2 8 -5 8 -10
0z m154 -92 c-7 -5 -22 -6 -33 -3 -15 3 -16 7 -7 13 8 5 17 3 21 -4 8 -12 12
-2 8 18 -1 6 4 4 12 -3 11 -11 10 -14 -1 -21z"/>
<path d="M1707 473 c-2 -5 -3 -21 -3 -38 1 -22 6 -30 19 -29 9 1 17 -2 17 -8
0 -5 4 -7 9 -3 5 3 13 1 16 -5 4 -6 16 -8 28 -5 12 4 17 3 12 -2 -6 -4 -10
-18 -9 -30 1 -13 -3 -23 -7 -23 -5 0 -9 -4 -9 -8 0 -4 9 -8 20 -8 15 0 19 5
14 21 -4 16 -3 17 6 5 8 -12 9 -9 6 12 -6 38 -15 50 -32 44 -8 -3 -14 -1 -14
5 0 6 -4 8 -9 4 -5 -3 -13 -1 -16 5 -4 6 -16 8 -28 5 -12 -2 -17 -2 -10 1 7 3
9 13 6 22 -4 15 -3 15 6 2 9 -12 13 -13 20 -2 9 15 20 15 39 0 9 -8 16 -8 25
2 9 9 9 11 0 6 -6 -3 -14 -2 -18 4 -3 6 -18 8 -31 6 -34 -6 -61 4 -42 15 9 6
9 9 1 9 -6 0 -14 -3 -16 -7z"/>
<path d="M2020 460 c-8 -5 -23 -7 -32 -4 -10 3 -21 -3 -28 -15 -6 -12 -16 -18
-25 -15 -8 4 -13 10 -10 14 3 5 -2 7 -12 6 -20 -3 -32 -62 -22 -106 3 -9 -3
-14 -14 -13 -13 1 -17 -4 -13 -14 4 -9 1 -22 -5 -29 -7 -8 -7 -14 -1 -14 12 0
34 25 27 32 -3 2 6 11 20 18 22 12 23 14 8 25 -15 11 -16 15 -3 31 14 16 13
17 -3 11 -15 -6 -16 -4 -7 13 6 11 15 20 20 20 15 0 22 -20 11 -34 -6 -7 -7
-17 -3 -21 4 -5 1 -5 -5 -1 -7 4 -13 2 -13 -4 0 -21 33 -5 37 18 4 27 33 75
41 67 13 -12 9 -33 -4 -28 -9 3 -12 0 -9 -9 3 -7 14 -14 25 -14 14 0 18 6 15
28 -2 16 0 26 4 23 5 -2 7 -20 6 -38 -2 -24 1 -34 11 -34 10 0 12 6 8 16 -11
25 -10 65 1 73 15 12 -7 9 -25 -2z"/>
<path d="M2147 437 c3 -5 12 -6 22 -3 12 5 11 2 -3 -9 -11 -8 -28 -13 -38 -9
-11 3 -18 0 -18 -7 0 -7 -3 -9 -6 -6 -4 3 -15 2 -25 -3 -12 -7 -19 -6 -23 3
-2 6 -4 1 -3 -13 2 -24 -3 -26 -44 -21 -5 0 -7 6 -4 11 3 6 1 10 -5 10 -7 0
-10 -7 -7 -15 4 -8 2 -17 -3 -20 -17 -10 -11 -21 10 -21 11 0 19 5 16 12 -3 7
7 10 27 9 40 -4 51 3 37 20 -9 11 -6 13 19 10 20 -3 29 0 27 8 -1 7 -1 9 1 5
2 -3 16 0 30 7 15 8 30 12 35 9 10 -6 10 7 0 22 -8 12 -53 14 -45 1z"/>
<path d="M2462 425 c-15 -32 -15 -35 -1 -35 5 0 8 4 5 8 -3 5 1 9 9 9 11 0 12
-4 4 -14 -7 -8 -8 -13 -1 -13 17 0 23 30 7 37 -12 4 -13 9 -4 19 6 8 7 14 2
14 -5 0 -15 -11 -21 -25z"/>
<path d="M2202 405 c-15 -32 -15 -32 1 -32 8 0 14 12 14 29 0 34 -1 34 -15 3z"/>
<path d="M2389 421 c-1 -3 -2 -21 -4 -39 -2 -29 -1 -31 10 -15 8 10 9 20 4 21
-5 2 -9 8 -9 14 0 6 6 6 15 -2 8 -7 15 -9 15 -4 0 5 7 -2 16 -14 8 -12 20 -19
26 -16 7 4 8 2 4 -5 -6 -9 -11 -9 -22 0 -10 8 -14 8 -14 0 0 -6 5 -11 11 -11
8 0 9 -4 0 -13 -6 -8 -10 -16 -8 -18 1 -3 -4 1 -11 7 -11 9 -11 16 -3 33 7 13
8 21 2 21 -6 0 -15 -9 -21 -20 -6 -11 -7 -20 -3 -20 10 0 -27 -25 -49 -33 -10
-3 -20 -1 -24 5 -4 6 -3 8 3 5 6 -4 13 0 16 7 4 10 -1 14 -14 13 -20 -1 -27
-31 -9 -42 8 -5 8 -11 1 -19 -6 -7 -8 -16 -4 -20 4 -4 0 -4 -10 0 -13 5 -16 2
-11 -9 3 -9 12 -13 21 -10 12 5 11 1 -3 -15 -22 -26 -25 -27 -18 -7 5 11 2 13
-10 9 -9 -3 -13 -11 -9 -17 3 -6 1 -7 -5 -3 -13 8 -6 30 20 69 11 15 15 27 9
27 -6 0 -15 -9 -21 -20 -7 -13 -16 -17 -28 -13 -15 6 -15 5 -4 -10 16 -19 6
-41 -15 -33 -9 4 -13 1 -11 -6 3 -7 9 -13 14 -14 5 0 17 -4 27 -8 9 -5 25 -5
35 0 9 4 20 6 25 6 4 -1 6 4 5 11 -2 6 5 11 15 9 10 -2 17 3 17 13 0 8 3 14 8
13 11 -4 82 63 82 78 0 7 8 18 18 23 16 10 15 12 -7 30 -13 10 -21 23 -17 30
4 6 4 12 -1 12 -32 5 -53 5 -54 0z m29 -110 c10 -6 7 -12 -11 -24 -18 -12 -27
-13 -35 -5 -7 7 -15 9 -19 5 -3 -4 2 -14 13 -23 10 -8 13 -13 6 -9 -7 3 -15
-1 -19 -10 -5 -16 -7 -16 -15 -1 -5 10 -5 23 2 36 12 23 21 25 39 8 11 -11 13
-10 8 4 -9 25 6 35 31 19z"/>
<path d="M1915 400 c3 -5 8 -10 11 -10 2 0 4 5 4 10 0 6 -5 10 -11 10 -5 0 -7
-4 -4 -10z"/>
<path d="M1964 398 c3 -10 1 -18 -5 -18 -6 0 -8 -4 -5 -9 3 -5 -10 -25 -29
-45 -19 -21 -35 -41 -35 -46 0 -11 -30 -21 -41 -14 -6 4 -6 11 1 19 7 8 7 20
1 36 l-10 24 -7 -23 c-5 -16 -12 -21 -25 -17 -11 4 -19 2 -19 -5 0 -6 4 -8 10
-5 6 4 7 -1 3 -12 -6 -16 -5 -17 13 -3 18 14 18 14 4 -4 -14 -18 -13 -19 3
-13 13 5 16 3 11 -6 -4 -6 -3 -9 1 -4 5 4 17 -1 27 -10 17 -16 20 -16 36 1 16
17 16 18 -8 12 l-25 -7 23 14 c12 7 19 17 15 21 -4 5 3 3 16 -4 21 -11 23 -10
18 4 -4 9 -4 23 0 32 5 13 7 13 14 2 7 -10 9 -10 9 2 0 13 2 13 11 0 9 -12 10
-12 5 4 -4 10 -2 24 3 30 6 7 4 20 -6 36 -8 14 -12 17 -9 8z m16 -32 c0 -2 -8
-10 -17 -17 -16 -13 -17 -12 -4 4 13 16 21 21 21 13z m-130 -66 c0 -5 -5 -10
-11 -10 -5 0 -7 5 -4 10 3 6 8 10 11 10 2 0 4 -4 4 -10z"/>
<path d="M2180 400 c0 -5 -7 -7 -15 -4 -9 4 -18 -1 -21 -11 -5 -12 -14 -15
-33 -11 -22 5 -23 4 -8 -4 9 -6 15 -15 12 -20 -3 -4 2 -11 11 -14 11 -4 15 -2
11 8 -3 8 4 22 16 33 21 17 21 17 7 0 -12 -17 -12 -18 6 -15 13 2 18 -2 16
-14 -2 -12 2 -16 13 -12 8 3 12 11 8 17 -3 6 -1 7 5 3 8 -5 8 -15 2 -32 -12
-30 -12 -34 -2 -33 25 4 34 -2 23 -15 -12 -14 -5 -46 10 -46 12 0 11 14 -1 26
-8 8 -6 15 5 24 12 10 15 10 15 0 0 -7 9 -1 21 14 11 14 17 30 14 36 -3 5 -3
10 2 11 4 0 16 2 27 4 10 2 25 1 33 -2 12 -5 12 -7 1 -14 -9 -6 -9 -9 -1 -9
18 0 25 18 14 37 -7 12 -10 14 -11 4 0 -11 -3 -11 -15 -1 -9 7 -15 8 -15 2 0
-11 -18 -11 -38 2 -7 4 -19 3 -26 -3 -7 -6 -16 -7 -20 -3 -4 4 -20 7 -34 7
-22 0 -27 4 -25 23 2 12 1 22 -2 22 -3 0 -5 -4 -5 -10z m59 -66 c-9 -11 -8
-18 2 -31 12 -17 12 -17 -6 -1 -14 13 -16 20 -7 31 7 8 8 18 4 22 -4 5 -1 5 6
1 10 -6 10 -11 1 -22z m47 14 c4 -7 3 -8 -4 -4 -7 4 -12 2 -12 -3 0 -6 5 -11
10 -11 6 0 5 -8 -2 -20 -10 -16 -14 -17 -21 -5 -4 8 -3 24 3 35 12 23 16 24
26 8z"/>
<path d="M1710 350 c0 -32 29 -69 50 -65 10 2 21 -3 24 -10 3 -10 0 -12 -11
-8 -11 4 -14 2 -9 -5 4 -7 13 -12 21 -12 7 0 16 -7 19 -16 3 -8 10 -12 16 -9
5 3 10 1 10 -4 0 -6 4 -11 10 -11 5 0 7 8 4 18 -5 14 -4 14 4 2 6 -8 9 -17 6
-22 -6 -9 31 -29 40 -21 3 3 6 1 6 -7 0 -10 4 -10 17 1 10 8 14 9 10 2 -4 -6
-2 -15 4 -19 8 -4 9 -3 5 4 -4 7 -3 12 3 12 6 0 8 7 5 15 -5 11 -11 12 -24 5
-15 -8 -18 -6 -15 8 2 9 4 21 4 26 1 4 8 6 16 2 8 -3 15 -1 15 4 0 15 -21 12
-42 -6 -15 -14 -20 -15 -34 -3 -21 17 -44 20 -44 6 0 -7 -11 10 -25 36 -21 38
-23 51 -14 68 14 27 4 36 -18 17 -33 -28 -42 -30 -38 -8 2 11 0 20 -6 20 -5 0
-9 -9 -9 -20z m53 -17 c-9 -3 -10 -10 -3 -22 6 -13 5 -18 -5 -18 -7 0 -11 7
-7 15 4 11 2 13 -9 7 -12 -8 -12 -6 0 8 7 9 19 17 25 16 7 0 6 -2 -1 -6z m127
-133 c0 -5 -2 -10 -4 -10 -3 0 -8 5 -11 10 -3 6 -1 10 4 10 6 0 11 -4 11 -10z"/>
<path d="M2079 343 c-8 -10 -9 -14 -2 -10 16 10 28 -12 14 -26 -9 -9 -11 -8
-6 4 4 10 1 16 -8 16 -8 0 -14 -11 -14 -28 0 -26 1 -27 23 -12 21 13 23 13 34
-6 6 -12 15 -21 21 -21 6 0 1 13 -11 30 -12 16 -22 39 -23 50 -2 24 -10 25
-28 3z"/>
<path d="M2146 349 c2 -4 1 -15 -2 -24 -6 -13 -9 -14 -16 -3 -8 10 -9 10 -5
-2 2 -8 12 -15 23 -15 33 0 47 -14 32 -33 -11 -13 -11 -14 2 -10 8 2 15 18 16
38 1 18 -2 27 -6 20 -5 -8 -9 -7 -14 5 -3 9 -4 20 -2 24 3 4 -4 7 -14 7 -10 0
-17 -3 -14 -7z"/>
<path d="M2025 332 c-3 -8 -3 -17 0 -20 3 -3 5 1 5 9 1 10 3 9 11 -3 7 -12 7
-24 0 -37 -8 -14 -7 -20 2 -24 9 -3 13 8 13 42 0 47 -18 66 -31 33z"/>
<path d="M1947 253 c2 -32 3 -69 3 -83 0 -21 2 -23 11 -8 8 14 15 15 35 8 14
-6 26 -10 28 -10 1 0 2 9 3 21 2 17 -1 18 -13 9 -11 -10 -17 -10 -29 0 -8 7
-15 9 -15 4 0 -5 -4 -2 -10 6 -6 9 -5 19 2 28 9 10 8 16 -3 23 -9 5 -10 9 -2
9 18 0 26 -19 14 -34 -9 -10 -3 -13 30 -13 28 0 37 3 29 11 -5 5 -10 14 -10
19 0 5 9 -1 20 -14 10 -13 19 -19 20 -12 0 17 -30 45 -44 40 -6 -3 -10 -10 -8
-16 1 -6 -2 -11 -8 -11 -14 0 -13 13 3 29 10 10 9 12 -3 11 -27 -4 -40 0 -40
12 0 6 3 8 7 5 3 -4 12 -2 19 4 15 12 37 3 29 -12 -4 -5 -2 -9 3 -9 8 0 22 22
22 34 0 2 -18 3 -40 3 -22 0 -40 -5 -40 -11 0 -6 -4 -5 -9 2 -5 8 -7 -11 -4
-45z"/>
<path d="M2145 291 c-7 -12 12 -24 25 -16 11 7 4 25 -10 25 -5 0 -11 -4 -15
-9z"/>
<path d="M1985 280 c-3 -6 1 -7 9 -4 18 7 21 14 7 14 -6 0 -13 -4 -16 -10z"/>
<path d="M2100 282 c0 -6 -6 -11 -12 -9 -7 1 -12 -4 -10 -10 1 -7 -3 -13 -9
-13 -6 0 -9 -7 -5 -15 3 -8 3 -22 -1 -31 -5 -13 -8 -13 -15 -2 -7 10 -8 9 -4
-4 3 -10 0 -18 -6 -18 -6 0 -9 -3 -6 -6 7 -7 50 14 60 30 11 16 10 28 -1 21
-5 -3 -13 0 -17 7 -4 7 -3 9 1 5 5 -4 14 1 19 12 10 17 12 18 26 3 13 -14 12
-15 -3 -9 -9 3 -17 2 -17 -3 0 -6 5 -10 11 -10 5 0 8 -4 5 -9 -3 -5 0 -14 8
-20 11 -9 13 -6 12 16 -1 27 -36 90 -36 65z"/>
<path d="M2197 265 c-10 -14 -15 -30 -12 -36 4 -5 1 -16 -5 -24 -15 -18 1 -20
18 -3 7 7 12 8 12 2 0 -6 11 -16 25 -22 34 -16 40 -15 25 3 -7 8 -16 13 -20
10 -4 -2 -15 4 -25 15 -10 11 -14 20 -8 20 5 0 10 14 10 30 0 17 -1 30 -1 30
-1 0 -9 -12 -19 -25z"/>
<path d="M2149 248 c-6 -72 -6 -76 6 -72 17 7 29 -13 14 -22 -8 -4 -9 -3 -5 4
10 16 -7 15 -23 0 -11 -10 -13 -10 -7 0 4 6 2 12 -4 12 -6 0 -9 4 -6 9 3 5 -1
14 -8 20 -11 10 -16 8 -21 -9 -4 -12 -9 -19 -12 -16 -3 3 -18 -1 -34 -9 -20
-11 -35 -12 -53 -5 -17 6 -26 6 -26 0 0 -6 8 -11 18 -11 9 -1 32 -3 50 -5 17
-1 30 2 27 6 -3 5 0 12 6 16 7 4 9 3 6 -3 -4 -6 0 -16 8 -23 13 -11 14 -10 9
3 -3 9 -1 24 5 34 9 16 10 15 8 -7 -2 -23 1 -25 33 -23 31 2 65 7 80 13 3 1
10 2 15 1 6 -1 1 6 -10 14 -11 9 -26 13 -33 10 -20 -8 -35 4 -23 19 6 7 8 22
4 34 -6 24 -22 30 -24 10z m21 -28 c0 -5 -4 -10 -10 -10 -5 0 -10 5 -10 10 0
6 5 10 10 10 6 0 10 -4 10 -10z"/>
<path d="M1915 220 c-3 -5 -1 -10 4 -10 6 0 11 5 11 10 0 6 -2 10 -4 10 -3 0
-8 -4 -11 -10z"/>
<path d="M1990 196 c7 -7 13 -7 20 0 6 6 3 10 -10 10 -13 0 -16 -4 -10 -10z"/>
</g>
</svg>
